HIERARCHY
ROOT Hips
{
	OFFSET 0.622353 42.527802 -39.594372
	CHANNELS 6 Xposition Yposition Zposition Xrotation Yrotation Zrotation
	JOINT Chest
	{
		OFFSET 0.132150 13.602631 1.051289
		CHANNELS 3 Xrotation Yrotation Zrotation
		JOINT Chest2
		{
			OFFSET -2.907059 11.153084 18.061682
			CHANNELS 3 Xrotation Yrotation Zrotation
			JOINT Chest3
			{
				OFFSET -0.263001 9.815636 11.242957
				CHANNELS 3 Xrotation Yrotation Zrotation
				JOINT Neck
				{
					OFFSET -1.063141 12.548874 11.832652
					CHANNELS 3 Xrotation Yrotation Zrotation
					JOINT Head
					{
						OFFSET -1.166419 6.846596 7.848017
						CHANNELS 3 Xrotation Yrotation Zrotation
						End Site
						{
							OFFSET -1.158756 6.901733 7.800703
						}
					}
				}
				JOINT LeftCollar
				{
					OFFSET 3.573881 8.051094 11.145027
					CHANNELS 3 Xrotation Yrotation Zrotation
					JOINT LeftUpArm
					{
						OFFSET 16.413145 0.132118 -6.252246
						CHANNELS 3 Xrotation Yrotation Zrotation
						JOINT LeftLowArm
						{
							OFFSET 11.004658 -25.985470 -18.530554
							CHANNELS 3 Xrotation Yrotation Zrotation
							JOINT LeftHand
							{
								OFFSET 5.916359 -28.459743 -7.482441
								CHANNELS 3 Xrotation Yrotation Zrotation
								End Site
								{
									OFFSET 1.293060 -6.220041 -1.635338
								}
							}
						}
					}
				}
				JOINT RightCollar
				{
					OFFSET -4.806611 7.275482 11.214835
					CHANNELS 3 Xrotation Yrotation Zrotation
					JOINT RightUpArm
					{
						OFFSET -16.461929 -3.916504 -4.707674
						CHANNELS 3 Xrotation Yrotation Zrotation
						JOINT RightLowArm
						{
							OFFSET -8.380543 -32.185963 -5.793544
							CHANNELS 3 Xrotation Yrotation Zrotation
							JOINT RightHand
							{
								OFFSET -8.883629 -28.573210 -2.368064
								CHANNELS 3 Xrotation Yrotation Zrotation
								End Site
								{
									OFFSET -1.941601 -6.244962 -0.517564
								}
							}
						}
					}
				}
			}
		}
	}
	JOINT LeftUpLeg
	{
		OFFSET 9.775644 -0.264259 2.187710
		CHANNELS 3 Xrotation Yrotation Zrotation
		JOINT LeftLowLeg
		{
			OFFSET -5.194791 2.345592 47.026596
			CHANNELS 3 Xrotation Yrotation Zrotation
			JOINT LeftFoot
			{
				OFFSET 1.019086 -36.006943 -26.514702
				CHANNELS 3 Xrotation Yrotation Zrotation
				JOINT LeftToe
				{
					OFFSET -0.418145 -17.451115 15.963814
					CHANNELS 3 Xrotation Yrotation Zrotation
					End Site
					{
						OFFSET 0.325641 -3.371622 23.411215
					}
				}
			}
		}
	}
	JOINT RightUpLeg
	{
		OFFSET -9.775650 0.264061 -2.187729
		CHANNELS 3 Xrotation Yrotation Zrotation
		JOINT RightLowLeg
		{
			OFFSET -23.531010 -20.812124 35.456444
			CHANNELS 3 Xrotation Yrotation Zrotation
			JOINT RightFoot
			{
				OFFSET 24.968536 -10.347269 -35.638283
				CHANNELS 3 Xrotation Yrotation Zrotation
				JOINT RightToe
				{
					OFFSET 16.219368 -16.038647 6.265030
					CHANNELS 3 Xrotation Yrotation Zrotation
					End Site
					{
						OFFSET 6.171787 -13.536736 18.390812
					}
				}
			}
		}
	}
}
MOTION
Frames: 16
Frame Time: 0.033333
-0.192750 35.475822 -29.457897 -23.252353 13.123671 6.423352 -18.467307 13.735514 -16.035785 3.358166 1.239323 1.000352 8.337879 -5.928489 -4.968365 7.305787 6.311560 1.590355 -0.000007 0.000000 0.000003 5.094621 -10.560484 12.005645 3.155547 -51.925530 36.221511 23.292103 -12.854329 45.351654 0.000004 0.000004 -0.000001 2.807532 11.439610 -8.984753 -22.496539 10.442599 35.376009 -54.071179 -18.084224 64.132239 -0.000000 0.000002 0.000002 34.698082 49.356333 29.232714 -105.516765 -1.888670 61.384099 72.574687 -67.180723 27.115837 0.000004 0.000001 -0.000002 5.402579 -6.880388 -9.472724 -29.237458 -29.888918 52.067946 22.187364 5.567868 -13.844291 0.000002 0.000003 -0.000000 
-0.138063 35.445419 -29.604713 -23.256927 13.241899 6.370683 -18.240857 13.564805 -15.890022 3.104115 1.364267 0.952309 8.369681 -6.182108 -5.119856 7.095920 6.250922 1.602874 -0.000002 0.000000 0.000001 4.970446 -10.516299 12.140368 3.518667 -52.028126 36.812322 23.369760 -12.753430 45.146423 0.000001 0.000003 -0.000002 2.726069 11.727606 -9.140350 -22.697176 10.442760 35.472485 -53.662098 -18.367499 64.778791 -0.000001 0.000002 -0.000002 34.596025 49.459743 29.323604 -105.998908 -1.720207 61.343432 73.923889 -67.249291 28.455905 0.000002 0.000000 -0.000001 5.339468 -6.933178 -9.582235 -29.014408 -29.722159 52.051229 21.969440 5.767582 -13.575132 0.000002 0.000003 0.000003 
-0.092058 35.426655 -29.740463 -22.619713 13.152857 6.508151 -18.677137 13.851108 -16.088564 3.216359 1.390196 0.969578 8.302547 -6.227163 -5.072505 7.020696 5.960544 1.625863 -0.000003 -0.000001 0.000002 4.765265 -10.305890 12.164106 3.767891 -52.082084 37.476497 22.301095 -13.284174 45.326365 0.000001 0.000003 -0.000002 2.586259 11.602051 -9.058455 -22.677229 10.265539 35.371074 -52.466822 -19.035853 65.868801 -0.000000 0.000000 -0.000000 33.992403 49.204744 29.555823 -105.162066 -1.435869 61.519152 71.919515 -67.440796 26.460768 -0.000003 -0.000000 -0.000001 4.667525 -6.680771 -9.782976 -28.688939 -29.389191 51.993989 21.595245 5.811510 -13.166078 0.000003 0.000003 -0.000000 
-0.048818 35.399162 -29.879932 -22.295225 13.310272 6.444383 -18.846430 13.756423 -15.953970 3.104353 1.298241 0.969893 8.275115 -6.224170 -5.244215 6.918031 5.803149 1.681932 -0.000003 0.000000 0.000001 4.709698 -10.296938 12.279657 3.559836 -52.486855 37.460494 21.700860 -13.625798 45.217171 -0.000003 0.000000 0.000001 2.522432 11.623876 -9.191450 -22.647423 10.193426 35.523851 -52.029823 -19.172063 66.128819 -0.000003 -0.000003 0.000003 33.479757 48.723008 29.535364 -105.201579 -1.561812 61.828204 72.364447 -67.492262 26.871889 0.000002 0.000001 -0.000002 4.436891 -6.715228 -10.033075 -28.727113 -29.549997 52.171973 21.389412 5.606628 -13.171055 -0.000003 0.000003 -0.000002 
-0.010077 35.375778 -30.021244 -22.274608 13.434524 6.349278 -18.634132 13.684542 -15.904867 3.266650 1.020572 1.032674 8.071289 -6.227332 -5.440212 6.396618 5.783923 1.701882 -0.000005 -0.000000 0.000002 4.460026 -10.031353 12.453981 3.294132 -53.146327 37.617304 21.504615 -13.591955 44.971444 -0.000002 0.000003 -0.000002 2.544513 11.901408 -8.895278 -23.089893 10.389270 35.101384 -53.443409 -18.568728 64.620242 -0.000000 0.000002 0.000002 33.237084 48.645273 29.552989 -105.322985 -1.651515 61.947084 73.169843 -67.585596 27.543090 -0.000003 -0.000001 0.000000 4.497959 -6.822988 -10.090051 -28.783452 -29.625771 52.223702 21.160696 5.475026 -13.032835 -0.000003 0.000001 -0.000000 
0.025994 35.364727 -30.150862 -22.165834 13.348710 6.550999 -18.610251 13.876742 -16.106334 3.272669 1.102388 1.023435 7.959226 -6.116367 -5.116693 6.183670 5.500812 1.730851 -0.000001 0.000000 -0.000000 4.397661 -10.042533 12.405291 2.780487 -53.828871 37.372633 21.458701 -13.436784 45.053646 -0.000000 0.000001 -0.000002 2.463198 11.621581 -8.968416 -23.200566 10.524570 34.668565 -54.687211 -18.118487 63.202022 -0.000001 -0.000001 -0.000001 33.305409 48.443943 29.393180 -105.045236 -1.580402 61.975115 72.751050 -67.284528 27.339307 -0.000000 -0.000000 -0.000000 4.269424 -6.820803 -10.262871 -28.876206 -29.760186 52.240258 21.362776 5.463896 -13.234622 0.000002 0.000003 -0.000002 
0.055615 35.337517 -30.291615 -22.341928 13.175356 6.488009 -18.211443 13.862056 -16.179808 2.662286 1.352683 0.952921 8.254345 -6.295843 -4.885248 6.015491 5.354537 1.885688 -0.000003 0.000000 0.000001 4.622270 -10.638313 12.219401 3.575030 -53.487997 38.162835 22.232699 -13.023785 45.220784 -0.000002 0.000001 -0.000003 2.566298 11.839929 -8.947112 -23.588692 10.811670 34.648740 -56.355659 -17.096162 61.305080 -0.000000 -0.000003 0.000001 33.503417 48.971545 29.592133 -105.172680 -1.295611 61.638147 73.064186 -67.240788 27.737038 -0.000002 -0.000001 -0.000000 4.380282 -6.756259 -10.033405 -28.628400 -29.333111 51.897550 20.996529 5.450591 -12.914305 0.000002 0.000003 0.000003 
0.085033 35.312458 -30.425678 -22.134302 13.242483 6.366486 -18.283313 13.688222 -15.999481 2.326329 1.581127 0.865961 8.381907 -6.458489 -4.829617 5.832639 5.279482 1.837732 0.000004 -0.000000 0.000002 4.643233 -10.764268 12.250388 3.568841 -53.656989 38.463124 21.425984 -13.297823 44.847859 -0.000001 -0.000000 -0.000003 2.564892 12.191708 -8.815443 -23.757678 10.934983 34.323767 -57.073723 -17.011522 60.815294 -0.000000 -0.000001 0.000001 33.063477 48.869877 29.719133 -105.085268 -1.357596 61.753912 74.039818 -67.181857 28.750209 -0.000000 0.000001 -0.000001 4.178611 -6.696924 -10.037865 -28.583782 -29.338582 51.913884 21.119792 5.697668 -12.911484 0.000001 0.000001 -0.000003 
0.110128 35.297455 -30.553558 -22.182088 13.342901 6.418993 -18.461264 13.751726 -16.035874 2.556902 1.516641 0.909498 8.398016 -6.430472 -4.860411 5.411582 5.148974 1.941225 -0.000001 -0.000001 0.000001 4.751724 -10.771385 12.523051 3.239559 -54.672205 38.173927 22.184051 -13.087460 44.812970 -0.000001 0.000001 -0.000003 2.577289 11.806038 -9.236155 -23.889813 10.895035 34.831369 -57.200973 -16.964235 60.876172 -0.000002 0.000004 0.000003 33.135102 48.911900 29.727668 -105.072133 -1.361918 61.660025 73.186317 -67.398784 27.760978 0.000005 0.000000 -0.000001 4.273450 -6.788803 -10.174465 -29.063964 -29.901247 52.058589 21.346581 5.346168 -13.351958 0.000003 0.000003 0.000003 
0.137315 35.283897 -30.680115 -21.897450 13.166153 6.505260 -18.650530 13.812715 -16.054346 2.815423 1.509863 0.947106 8.079930 -6.434317 -5.112584 5.706917 5.154085 1.928735 0.000000 0.000002 -0.000000 4.723009 -10.731166 12.625972 3.446836 -54.755297 38.542501 22.200464 -12.764894 44.697892 -0.000003 0.000001 -0.000002 2.611686 12.326764 -8.937983 -24.010594 10.976189 34.740712 -57.442062 -17.187258 60.804304 -0.000002 0.000000 -0.000000 33.023428 48.773684 29.718717 -104.288929 -1.388282 61.779054 72.224264 -67.075586 27.034321 -0.000000 0.000001 -0.000001 3.964159 -6.700791 -10.308641 -29.242215 -30.052102 52.035041 21.773248 5.619915 -13.508768 0.000003 0.000002 -0.000001 
0.156760 35.272594 -30.803955 -21.822763 13.203319 6.630901 -19.044960 14.037235 -16.185062 2.749588 1.717466 0.891685 8.400619 -6.739045 -5.022131 5.857176 5.093918 1.890113 0.000000 0.000000 0.000001 4.490575 -10.545917 12.648820 3.617825 -54.559305 39.101600 21.322770 -12.836258 44.481450 -0.000000 0.000003 -0.000000 2.438654 12.256779 -8.783837 -23.625343 10.494915 34.761520 -55.823648 -18.285246 62.543858 -0.000000 0.000002 0.000002 33.032871 48.537319 29.571062 -104.263234 -1.418425 61.791075 72.408420 -67.002400 27.243970 0.000002 -0.000000 -0.000000 3.852422 -6.651467 -10.274147 -29.028273 -29.806969 52.020722 21.838898 5.817409 -13.296173 0.000007 0.000000 0.000002 
0.167266 35.251896 -30.934235 -22.438964 13.371632 6.493796 -18.329436 13.748104 -16.027572 3.285245 1.565168 0.936423 7.667991 -6.524962 -5.119960 5.611335 4.946911 1.861395 0.000002 0.000001 0.000000 4.216832 -10.476338 12.866961 3.307361 -54.651212 39.293266 20.534091 -12.996042 44.099885 -0.000001 -0.000002 0.000002 2.325543 12.285482 -8.698934 -23.118466 9.995750 34.461740 -56.300245 -18.361415 62.313161 -0.000000 0.000000 -0.000000 33.490689 48.718534 29.353240 -105.247744 -1.542479 61.784894 74.643927 -67.205564 29.267589 0.000003 0.000000 -0.000001 4.412020 -6.853755 -9.953034 -28.897045 -29.709537 52.033590 22.345997 6.169331 -13.335717 0.000002 0.000003 0.000001 
0.175433 35.232700 -31.065266 -23.215745 13.517769 6.521270 -17.856240 13.578991 -15.958578 3.352010 1.803311 0.944741 7.680918 -6.848027 -5.282537 5.728140 5.025876 1.951623 0.000002 0.000000 -0.000000 4.289425 -10.523815 13.012335 3.934079 -54.755250 39.995610 19.992046 -13.489770 43.619548 -0.000002 0.000000 0.000001 2.400219 12.634831 -8.416373 -23.233052 10.147153 34.321400 -56.760060 -18.438623 62.115537 -0.000000 0.000002 0.000002 34.136520 48.741555 29.110335 -106.026167 -1.703730 61.696566 76.105157 -67.338220 30.514925 -0.000005 0.000001 -0.000001 5.183803 -7.097601 -9.752047 -28.659658 -29.425104 52.039413 21.898131 6.016256 -13.063401 0.000003 0.000003 -0.000000 
0.181289 35.204391 -31.201860 -23.525347 13.654914 6.483673 -17.724618 13.550383 -15.944216 3.809921 1.664778 1.038616 7.350381 -6.602254 -5.127962 5.203789 4.945871 2.030901 0.000000 0.000000 0.000000 4.573029 -11.092374 12.968848 4.696687 -54.756274 40.563298 20.958514 -13.201196 43.703980 0.000000 0.000000 0.000001 2.462610 12.563727 -8.833852 -23.917099 10.783958 34.156752 -58.910033 -17.031517 59.651355 -0.000001 0.000000 -0.000000 34.356545 48.839254 29.098231 -106.382976 -1.689602 61.710001 76.505311 -67.581559 30.872937 -0.000002 0.000000 -0.000001 5.599162 -7.291324 -9.721068 -28.601695 -29.431538 52.066986 21.949238 6.373061 -12.883981 0.000006 0.000000 0.000003 
0.183002 35.182606 -31.341183 -22.379192 13.736580 6.547671 -19.658148 14.207485 -16.190514 5.618359 1.091486 1.298329 6.454878 -5.580117 -4.853480 5.304401 4.343366 2.142112 0.000000 -0.000001 0.000001 4.846732 -11.881597 12.859123 4.447141 -55.094440 40.476012 21.329494 -12.870662 43.630968 -0.000001 0.000002 -0.000000 2.414170 11.575138 -9.492215 -23.096771 10.298168 34.550133 -58.758376 -16.910148 59.770658 -0.000002 -0.000001 0.000001 33.637452 48.970428 29.485059 -106.287176 -1.171263 60.983207 76.852462 -66.710697 31.763149 0.000003 -0.000000 -0.000001 4.741864 -7.168143 -10.295182 -29.063199 -30.042590 52.314768 21.593599 5.658220 -13.212960 0.000006 0.000003 0.000002 
0.186949 35.158134 -31.476028 -22.997484 13.428423 6.495165 -18.467681 13.934041 -16.166469 4.560768 1.364264 1.120103 6.918489 -5.916353 -4.769117 5.142161 4.791873 2.097413 -0.000005 0.000001 -0.000000 4.604976 -11.586913 13.060836 4.323916 -54.932910 40.619002 20.795836 -12.769631 43.648522 0.000001 0.000003 -0.000003 2.297135 12.118046 -9.280112 -23.464210 10.315305 34.309396 -59.426013 -16.897087 59.034691 -0.000001 -0.000003 -0.000001 34.159313 49.159122 29.322723 -106.362451 -1.345599 61.109532 76.739347 -66.850941 31.560340 -0.000003 -0.000000 -0.000001 5.047947 -7.069396 -9.790898 -28.977095 -29.743271 51.951638 22.238392 6.160986 -13.249438 0.000003 0.000006 0.000002 
